<svg xmlns="http://www.w3.org/2000/svg" xmlns:xlink="http://www.w3.org/1999/xlink" width="500" zoomAndPan="magnify" viewBox="0 0 375 374.999991" height="500" preserveAspectRatio="xMidYMid meet" version="1.0"><defs><clipPath id="72f7de1ee9"><path d="M 21.382812 316 L 353.632812 316 L 353.632812 327 L 21.382812 327 Z M 21.382812 316 " clip-rule="nonzero"/></clipPath><clipPath id="dad93ebf6c"><path d="M 32 316 L 343 316 L 343 353.632812 L 32 353.632812 Z M 32 316 " clip-rule="nonzero"/></clipPath><clipPath id="b5e476375f"><path d="M 171 21.382812 L 204 21.382812 L 204 119 L 171 119 Z M 171 21.382812 " clip-rule="nonzero"/></clipPath></defs><g clip-path="url(#72f7de1ee9)"><path fill="#000000" d="M 348.015625 326.882812 L 27 326.882812 C 24.054688 326.882812 21.648438 324.476562 21.648438 321.53125 C 21.648438 318.585938 24.054688 316.179688 27 316.179688 L 348.015625 316.179688 C 350.960938 316.179688 353.363281 318.585938 353.363281 321.53125 C 353.363281 324.476562 350.960938 326.882812 348.015625 326.882812 " fill-opacity="1" fill-rule="nonzero"/></g><g clip-path="url(#dad93ebf6c)"><path fill="#000000" d="M 315.203125 353.632812 L 59.8125 353.632812 C 54.191406 353.632812 48.921875 350.644531 46.039062 345.835938 L 33.125 324.289062 C 31.597656 321.761719 32.414062 318.457031 34.941406 316.953125 C 37.472656 315.40625 40.773438 316.242188 42.277344 318.773438 L 55.214844 340.339844 C 56.175781 341.929688 57.929688 342.933594 59.8125 342.933594 L 315.203125 342.933594 C 317.082031 342.933594 318.839844 341.929688 319.800781 340.320312 L 332.738281 318.773438 C 334.242188 316.242188 337.523438 315.40625 340.074219 316.953125 C 342.601562 318.457031 343.417969 321.761719 341.890625 324.289062 L 328.976562 345.835938 C 326.089844 350.644531 320.804688 353.632812 315.203125 353.632812 " fill-opacity="1" fill-rule="nonzero"/></g><path fill="#000000" d="M 198.207031 177.386719 C 195.261719 177.386719 192.859375 175.003906 192.859375 172.039062 L 192.859375 155.671875 C 192.859375 152.726562 190.453125 150.324219 187.507812 150.324219 C 184.5625 150.324219 182.15625 152.726562 182.15625 155.671875 L 182.15625 172.039062 C 182.15625 175.003906 179.753906 177.386719 176.808594 177.386719 C 173.859375 177.386719 171.457031 175.003906 171.457031 172.039062 L 171.457031 155.671875 C 171.457031 146.8125 178.644531 139.621094 187.507812 139.621094 C 196.367188 139.621094 203.558594 146.8125 203.558594 155.671875 L 203.558594 172.039062 C 203.558594 175.003906 201.15625 177.386719 198.207031 177.386719 " fill-opacity="1" fill-rule="nonzero"/><path fill="#000000" d="M 74.878906 278.730469 C 74.296875 278.730469 73.710938 278.625 73.125 278.4375 C 70.324219 277.453125 68.863281 274.425781 69.824219 271.625 C 73.917969 259.855469 82.152344 242.550781 98.140625 226.835938 C 100.273438 224.765625 103.636719 224.789062 105.726562 226.917969 C 107.796875 229.007812 107.753906 232.394531 105.664062 234.464844 C 91.121094 248.738281 83.660156 264.453125 79.9375 275.132812 C 79.164062 277.351562 77.097656 278.730469 74.878906 278.730469 " fill-opacity="1" fill-rule="nonzero"/><path fill="#000000" d="M 133.523438 214.527344 C 131.476562 214.527344 129.511719 213.335938 128.632812 211.347656 C 127.421875 208.652344 128.632812 205.476562 131.328125 204.285156 C 136.847656 201.839844 142.65625 199.75 148.632812 198.097656 C 151.433594 197.304688 154.421875 198.996094 155.21875 201.859375 C 155.992188 204.703125 154.320312 207.648438 151.476562 208.421875 C 146.023438 209.929688 140.714844 211.832031 135.699219 214.066406 C 134.988281 214.378906 134.234375 214.527344 133.523438 214.527344 " fill-opacity="1" fill-rule="nonzero"/><path fill="#000000" d="M 331.964844 305.480469 C 329.015625 305.480469 326.613281 303.078125 326.613281 300.128906 C 326.613281 250.492188 282.390625 177.074219 187.507812 177.074219 C 92.625 177.074219 48.402344 250.492188 48.402344 300.128906 C 48.402344 303.078125 45.996094 305.480469 43.050781 305.480469 C 40.105469 305.480469 37.699219 303.078125 37.699219 300.128906 C 37.699219 246.1875 85.308594 166.375 187.507812 166.375 C 289.707031 166.375 337.3125 246.1875 337.3125 300.128906 C 337.3125 303.078125 334.910156 305.480469 331.964844 305.480469 " fill-opacity="1" fill-rule="nonzero"/><g clip-path="url(#b5e476375f)"><path fill="#000000" d="M 182.15625 118.222656 C 179.921875 118.222656 177.832031 116.800781 177.078125 114.566406 C 176.160156 111.765625 177.644531 108.753906 180.445312 107.8125 C 180.945312 107.625 192.859375 103.363281 192.859375 91.46875 C 192.859375 84.574219 186.253906 76.402344 183.726562 73.851562 C 182.472656 72.597656 171.457031 61.230469 171.457031 48.667969 C 171.457031 28.980469 190.351562 22.460938 191.164062 22.1875 C 193.984375 21.25 196.996094 22.773438 197.9375 25.574219 C 198.855469 28.375 197.351562 31.40625 194.550781 32.347656 C 194.070312 32.511719 182.15625 36.777344 182.15625 48.667969 C 182.15625 55.566406 188.761719 63.738281 191.289062 66.285156 C 192.542969 67.539062 203.558594 78.910156 203.558594 91.46875 C 203.558594 111.15625 184.664062 117.679688 183.851562 117.949219 C 183.285156 118.136719 182.722656 118.222656 182.15625 118.222656 " fill-opacity="1" fill-rule="nonzero"/></g><path fill="#000000" d="M 278.460938 155.671875 C 276.226562 155.671875 274.136719 154.253906 273.382812 152.015625 C 272.464844 149.214844 273.949219 146.207031 276.746094 145.265625 C 277.25 145.078125 289.160156 140.8125 289.160156 128.921875 C 289.160156 122.027344 282.558594 113.855469 280.027344 111.304688 C 278.773438 110.050781 267.761719 98.679688 267.761719 86.121094 C 267.761719 66.433594 286.652344 59.914062 287.46875 59.640625 C 290.289062 58.699219 293.300781 60.226562 294.242188 63.027344 C 295.160156 65.828125 293.65625 68.859375 290.855469 69.796875 C 290.375 69.964844 278.460938 74.230469 278.460938 86.121094 C 278.460938 93.015625 285.066406 101.1875 287.59375 103.738281 C 288.847656 104.992188 299.863281 116.363281 299.863281 128.921875 C 299.863281 148.609375 280.96875 155.128906 280.15625 155.402344 C 279.589844 155.589844 279.027344 155.671875 278.460938 155.671875 " fill-opacity="1" fill-rule="nonzero"/><path fill="#000000" d="M 85.851562 155.671875 C 83.617188 155.671875 81.527344 154.253906 80.773438 152.015625 C 79.855469 149.214844 81.339844 146.207031 84.140625 145.265625 C 84.640625 145.078125 96.554688 140.8125 96.554688 128.921875 C 96.554688 122.027344 89.949219 113.855469 87.421875 111.304688 C 86.167969 110.050781 75.152344 98.679688 75.152344 86.121094 C 75.152344 66.433594 94.046875 59.914062 94.859375 59.640625 C 97.683594 58.699219 100.691406 60.226562 101.632812 63.027344 C 102.550781 65.828125 101.046875 68.859375 98.246094 69.796875 C 97.765625 69.964844 85.851562 74.230469 85.851562 86.121094 C 85.851562 93.015625 92.457031 101.1875 94.984375 103.738281 C 96.238281 104.992188 107.253906 116.363281 107.253906 128.921875 C 107.253906 148.609375 88.359375 155.128906 87.546875 155.402344 C 86.980469 155.589844 86.417969 155.671875 85.851562 155.671875 " fill-opacity="1" fill-rule="nonzero"/></svg>