<svg xmlns="http://www.w3.org/2000/svg" xmlns:xlink="http://www.w3.org/1999/xlink" width="500" zoomAndPan="magnify" viewBox="0 0 375 374.999991" height="500" preserveAspectRatio="xMidYMid meet" version="1.0"><defs><clipPath id="bc5e5c8b8b"><path d="M 9.304688 181 L 267 181 L 267 267 L 9.304688 267 Z M 9.304688 181 " clip-rule="nonzero"/></clipPath><clipPath id="f9bd4e2c11"><path d="M 279 169 L 365.554688 169 L 365.554688 316.835938 L 279 316.835938 Z M 279 169 " clip-rule="nonzero"/></clipPath></defs><path fill="#000000" d="M 30.09375 255.035156 L 249.808594 255.035156 C 252.882812 255.035156 255.375 257.53125 255.375 260.605469 C 255.375 261.109375 255.308594 261.597656 255.183594 262.066406 L 251.082031 284.367188 C 249.707031 291.851562 245.371094 298.714844 239.523438 303.65625 C 233.679688 308.59375 226.257812 311.699219 218.675781 311.699219 L 61.175781 311.699219 C 53.59375 311.699219 46.175781 308.59375 40.332031 303.65625 C 34.480469 298.71875 30.148438 291.855469 28.773438 284.367188 L 24.585938 261.609375 L 24.570312 261.609375 C 24.015625 258.585938 26.015625 255.683594 29.039062 255.128906 C 29.390625 255.0625 29.742188 255.035156 30.089844 255.035156 Z M 243.144531 266.171875 L 36.710938 266.171875 L 39.6875 282.367188 C 40.582031 287.242188 43.515625 291.804688 47.507812 295.175781 C 51.421875 298.484375 56.296875 300.5625 61.175781 300.5625 L 218.675781 300.5625 C 223.558594 300.5625 228.429688 298.480469 232.347656 295.175781 C 236.335938 291.804688 239.269531 287.242188 240.164062 282.367188 Z M 243.144531 266.171875 " fill-opacity="1" fill-rule="nonzero"/><g clip-path="url(#bc5e5c8b8b)"><path fill="#000000" d="M 243.179688 227.300781 L 240.164062 211.105469 C 239.257812 206.234375 236.320312 201.667969 232.324219 198.292969 C 228.414062 194.988281 223.550781 192.910156 218.675781 192.910156 L 61.175781 192.910156 C 56.289062 192.910156 51.398438 194.996094 47.476562 198.308594 C 43.492188 201.675781 40.5625 206.226562 39.6875 211.085938 L 36.757812 227.328125 L 110.847656 227.359375 C 113.117188 227.15625 115.371094 228.367188 116.390625 230.550781 L 116.371094 230.558594 L 120.0625 238.472656 L 163.753906 238.472656 L 167.371094 230.714844 C 168.210938 228.710938 170.195312 227.300781 172.503906 227.300781 Z M 251.082031 209.105469 L 254.46875 227.300781 L 260.597656 227.300781 C 263.671875 227.300781 266.164062 229.792969 266.164062 232.867188 L 266.164062 260.601562 C 266.164062 263.675781 263.671875 266.171875 260.597656 266.171875 L 14.871094 266.171875 C 11.796875 266.171875 9.304688 263.675781 9.304688 260.601562 L 9.304688 232.867188 C 9.304688 229.792969 11.796875 227.300781 14.871094 227.300781 L 25.492188 227.300781 L 28.773438 209.128906 C 30.125 201.628906 34.453125 194.765625 40.300781 189.824219 C 46.152344 184.882812 53.589844 181.777344 61.175781 181.777344 L 218.675781 181.777344 C 226.253906 181.777344 233.664062 184.878906 239.5 189.8125 C 245.351562 194.75 249.6875 201.617188 251.082031 209.105469 Z M 20.4375 238.4375 L 20.4375 255.035156 L 255.027344 255.035156 L 255.027344 238.4375 L 176.050781 238.4375 L 172.34375 246.390625 L 172.34375 246.394531 C 171.398438 248.417969 169.394531 249.609375 167.296875 249.609375 L 116.542969 249.609375 C 114.128906 249.609375 112.074219 248.074219 111.300781 245.925781 L 107.8125 238.449219 C 77.257812 238.433594 34.921875 238.4375 20.4375 238.4375 Z M 20.4375 238.4375 " fill-opacity="1" fill-rule="nonzero"/></g><g clip-path="url(#f9bd4e2c11)"><path fill="#000000" d="M 284.640625 169.542969 L 359.988281 169.542969 C 363.0625 169.542969 365.554688 172.035156 365.554688 175.109375 C 365.554688 175.328125 365.542969 175.542969 365.519531 175.753906 L 361.347656 311.316406 L 361.367188 311.335938 C 361.273438 314.351562 358.796875 316.734375 355.804688 316.730469 L 355.804688 316.734375 L 288.828125 316.734375 C 285.753906 316.734375 283.257812 314.242188 283.257812 311.164062 C 283.257812 311.066406 283.261719 310.964844 283.269531 310.863281 L 279.097656 175.277344 L 279.078125 175.28125 C 278.984375 172.207031 281.398438 169.636719 284.46875 169.546875 Z M 354.269531 180.675781 L 290.363281 180.675781 L 294.203125 305.597656 L 350.425781 305.597656 Z M 354.269531 180.675781 " fill-opacity="1" fill-rule="nonzero"/></g><path fill="#000000" d="M 363.828125 230.703125 L 362.765625 265.269531 L 362.785156 265.289062 C 362.691406 268.304688 360.214844 270.683594 357.21875 270.683594 L 287.410156 270.683594 C 284.335938 270.683594 281.84375 268.191406 281.84375 265.117188 C 281.84375 265.015625 281.84375 264.914062 281.851562 264.816406 L 280.785156 230.226562 L 280.765625 230.226562 C 280.671875 227.15625 283.089844 224.585938 286.160156 224.492188 L 286.332031 224.488281 L 358.300781 224.488281 C 361.375 224.488281 363.867188 226.980469 363.867188 230.054688 C 363.867188 230.273438 363.851562 230.492188 363.828125 230.703125 Z M 351.84375 259.550781 L 352.578125 235.621094 L 292.050781 235.621094 L 292.789062 259.550781 Z M 351.84375 259.550781 " fill-opacity="1" fill-rule="nonzero"/><path fill="#000000" d="M 285.34375 192.304688 C 282.269531 192.304688 279.773438 194.796875 279.773438 197.871094 C 279.773438 200.945312 282.269531 203.4375 285.34375 203.4375 L 359.21875 203.4375 C 362.292969 203.4375 364.785156 200.945312 364.785156 197.871094 C 364.785156 194.796875 362.292969 192.304688 359.21875 192.304688 Z M 285.34375 192.304688 " fill-opacity="1" fill-rule="nonzero"/><path fill="#000000" d="M 316.746094 175.109375 C 316.746094 178.183594 319.242188 180.675781 322.316406 180.675781 C 325.390625 180.675781 327.882812 178.183594 327.882812 175.109375 L 327.882812 145.007812 L 346.296875 134.375 C 348.949219 132.835938 349.855469 129.4375 348.316406 126.785156 C 346.78125 124.132812 343.382812 123.226562 340.726562 124.761719 L 319.894531 136.792969 C 318.03125 137.695312 316.746094 139.601562 316.746094 141.808594 Z M 316.746094 175.109375 " fill-opacity="1" fill-rule="nonzero"/><path fill="#000000" d="M 140.496094 181.804688 C 172.003906 182.433594 195.519531 136.890625 172.589844 119.085938 L 172.585938 119.09375 C 172.144531 118.746094 171.769531 118.34375 171.460938 117.90625 C 169.121094 115.148438 166.355469 113.609375 163.5625 112.992188 C 160.105469 112.230469 156.53125 112.832031 153.617188 114.242188 C 151.238281 115.398438 149.101562 116.511719 147.496094 117.347656 C 144.203125 119.0625 142.726562 119.828125 140.460938 119.878906 C 138.160156 119.929688 137.070312 119.300781 135.101562 118.160156 C 133.863281 117.445312 131.917969 116.320312 128.140625 114.9375 C 124.855469 113.738281 121 112.835938 117.335938 113.1875 C 114.074219 113.5 110.824219 114.902344 108.144531 118.207031 L 108.15625 118.21875 C 107.84375 118.605469 107.488281 118.941406 107.101562 119.21875 C 105.476562 120.605469 92.738281 132.664062 105.027344 161.222656 L 105.03125 161.222656 C 111.117188 175.335938 124.640625 182.222656 139.769531 181.796875 L 139.769531 181.777344 C 140.015625 181.773438 140.257812 181.78125 140.496094 181.804688 Z M 140.3125 192.898438 L 140.085938 192.910156 L 140.082031 192.894531 L 139.925781 192.890625 C 107.210938 193.734375 96.050781 168.683594 94.835938 165.695312 L 94.804688 165.625 L 94.808594 165.621094 L 94.757812 165.5 C 79.820312 130.648438 96.746094 113.542969 99.90625 110.753906 C 104.667969 105.121094 110.449219 102.703125 116.292969 102.140625 C 121.882812 101.601562 127.371094 102.835938 131.921875 104.5 C 136.664062 106.230469 139.109375 107.648438 140.667969 108.550781 C 140.6875 108.566406 142.246094 107.535156 142.363281 107.472656 C 143.777344 106.738281 145.65625 105.757812 148.792969 104.238281 C 153.75 101.832031 159.902344 100.832031 165.953125 102.164062 C 170.988281 103.273438 175.90625 105.964844 179.949219 110.757812 C 211.378906 138.527344 179.761719 193.671875 140.3125 192.898438 Z M 140.3125 192.898438 " fill-opacity="1" fill-rule="nonzero"/><path fill="#000000" d="M 132.125 83.792969 C 130.132812 81.464844 126.625 81.191406 124.296875 83.183594 C 121.96875 85.179688 121.695312 88.683594 123.6875 91.011719 C 123.695312 91.023438 126.886719 94.558594 129.886719 99.527344 L 129.890625 99.527344 L 129.882812 99.53125 C 129.933594 99.617188 129.984375 99.699219 130.039062 99.78125 L 130.191406 100.035156 L 130.195312 100.03125 L 130.199219 100.042969 L 130.1875 100.050781 C 130.246094 100.148438 130.304688 100.242188 130.371094 100.335938 L 130.480469 100.527344 L 130.476562 100.53125 L 130.496094 100.570312 L 130.492188 100.570312 L 130.582031 100.71875 C 131.804688 102.875 132.925781 105.214844 133.648438 107.527344 C 134.324219 109.675781 134.671875 111.777344 134.4375 113.613281 C 134.054688 116.648438 136.207031 119.425781 139.242188 119.808594 C 142.28125 120.195312 145.058594 118.042969 145.441406 115.003906 C 145.898438 111.398438 145.359375 107.730469 144.261719 104.222656 C 143.261719 101.03125 141.808594 97.96875 140.253906 95.226562 C 140.210938 95.140625 140.160156 95.050781 140.109375 94.964844 L 140.101562 94.972656 L 139.96875 94.75 C 139.90625 94.621094 139.835938 94.492188 139.761719 94.363281 L 139.753906 94.367188 L 139.59375 94.097656 C 139.539062 93.992188 139.476562 93.886719 139.414062 93.78125 L 139.410156 93.785156 C 135.925781 88.007812 132.136719 83.804688 132.125 83.792969 Z M 132.125 83.792969 " fill-opacity="1" fill-rule="nonzero"/><path fill="#000000" d="M 150.816406 85.164062 C 160.851562 83.785156 163.617188 76.660156 164.300781 71.675781 C 159.316406 72.359375 152.191406 75.125 150.816406 85.164062 Z M 175.457031 65.390625 C 175.464844 65.484375 179.695312 98.046875 145.261719 96.457031 C 142.246094 96.550781 139.691406 94.222656 139.527344 91.195312 L 139.539062 91.175781 C 137.738281 58.105469 167.0625 60.164062 170.292969 60.488281 C 172.917969 60.65625 175.136719 62.675781 175.460938 65.382812 Z M 175.457031 65.390625 " fill-opacity="1" fill-rule="nonzero"/><path fill="#000000" d="M 149.519531 94.242188 C 151.371094 91.792969 150.882812 88.304688 148.433594 86.457031 C 145.984375 84.609375 142.496094 85.09375 140.648438 87.542969 L 132.742188 98.015625 C 130.890625 100.464844 131.378906 103.949219 133.828125 105.800781 C 136.277344 107.648438 139.765625 107.160156 141.613281 104.710938 Z M 149.519531 94.242188 " fill-opacity="1" fill-rule="nonzero"/></svg>