<svg xmlns="http://www.w3.org/2000/svg" xmlns:xlink="http://www.w3.org/1999/xlink" width="500" zoomAndPan="magnify" viewBox="0 0 375 374.999991" height="500" preserveAspectRatio="xMidYMid meet" version="1.0"><defs><clipPath id="15c680e070"><path d="M 18.242188 43.628906 L 356.714844 43.628906 L 356.714844 331.628906 L 18.242188 331.628906 Z M 18.242188 43.628906 " clip-rule="nonzero"/></clipPath></defs><g clip-path="url(#15c680e070)"><path fill="#040606" d="M 338.804688 182.269531 L 289.617188 170.539062 C 283.335938 169.214844 276.785156 172.34375 274.621094 178.148438 C 272.457031 183.59375 269.664062 188.554688 267.378906 191.835938 L 335.441406 228.261719 C 338.804688 221.734375 344.996094 208.410156 346.558594 193.15625 C 346.917969 188.195312 343.644531 183.472656 338.804688 182.269531 Z M 336.402344 240.503906 L 334.839844 239.511719 L 257.222656 198 C 255.902344 197.277344 254.429688 196.917969 252.988281 196.917969 C 250.222656 196.917969 247.546875 198.242188 245.957031 200.558594 C 240.757812 208.527344 233.636719 215.6875 225.671875 220.890625 C 222.035156 223.296875 220.953125 228.140625 223.117188 232.140625 L 248.507812 279.699219 L 264.585938 309.839844 L 265.308594 311.402344 C 267.230469 314.921875 271.464844 316.605469 275.34375 315.402344 C 304.492188 305.597656 330.601562 279.578125 340.277344 250.550781 C 341.722656 246.671875 340.039062 242.308594 336.402344 240.503906 Z M 253.226562 310.441406 L 245.863281 296.632812 L 216.835938 242.429688 C 213.5625 244.714844 208.753906 247.632812 203.164062 249.679688 C 197.367188 251.875 194.089844 258.28125 195.5625 264.570312 L 207.28125 313.839844 C 208.484375 318.921875 213.203125 322.171875 218.28125 321.570312 C 233.515625 319.886719 246.828125 313.839844 253.226562 310.441406 Z M 195.921875 309.960938 L 185.285156 265.410156 C 178.015625 267.246094 164.253906 269.53125 149.136719 267.125 C 148.898438 267.003906 148.535156 267.003906 148.296875 267.003906 C 146.824219 267.003906 145.5 267.605469 144.539062 268.808594 C 144.058594 269.410156 143.097656 271.125 144.058594 273.171875 C 158.933594 308.15625 184.925781 310.5625 195.921875 309.960938 Z M 101.027344 300.273438 L 148.898438 300.273438 C 144.660156 295.550781 140.785156 289.867188 137.386719 283.097656 L 58.210938 283.097656 C 65.960938 291.699219 90.363281 300.273438 101.027344 300.273438 Z M 131.109375 272.808594 L 133.542969 272.808594 C 133.300781 269.171875 134.261719 265.652344 136.546875 262.644531 C 139.941406 258.402344 145.382812 256.117188 150.820312 257.199219 C 166.777344 259.726562 181.53125 256.117188 186.007812 254.761719 C 187.929688 248.234375 192.886719 242.789062 199.558594 240.144531 C 205 237.949219 209.714844 234.9375 212.480469 232.984375 C 210.558594 225.375 213.441406 217.011719 220.234375 212.53125 C 221.796875 211.445312 223.359375 210.363281 224.800781 209.039062 C 228.558594 197.277344 230.871094 185.308594 230.871094 173.816406 L 230.871094 140.277344 L 76.117188 140.277344 L 76.117188 173.816406 C 76.117188 212.167969 99.796875 257.320312 131.109375 272.808594 Z M 77.320312 225.496094 C 70.078125 208.769531 65.839844 190.75 65.839844 173.816406 L 65.839844 171.378906 C 58.691406 165.933594 50.125 162.777344 40.929688 167.621094 C 35.011719 170.777344 30.894531 176.34375 29.210938 183.351562 C 27.378906 190.992188 28.972656 199.234375 33.417969 205.28125 C 38.617188 212.410156 47.691406 215.207031 58.210938 218.335938 C 64.371094 220.289062 70.917969 222.335938 77.320312 225.496094 Z M 290.457031 160.128906 L 334.839844 170.777344 C 335.5625 159.769531 333.128906 133.75 298.210938 118.859375 C 296.015625 117.898438 294.453125 118.980469 293.734375 119.460938 C 292.410156 120.542969 291.78125 122.257812 292.050781 124.0625 C 294.574219 139.195312 292.261719 153 290.457031 160.128906 Z M 356.59375 194.390625 C 354.914062 211.808594 348 226.335938 344.125 233.34375 C 350.074219 238.1875 352.480469 246.308594 349.953125 253.800781 C 339.289062 285.746094 310.53125 314.683594 278.617188 325.332031 C 276.664062 325.933594 274.621094 326.292969 272.699219 326.292969 C 267.109375 326.292969 261.910156 323.886719 258.304688 319.40625 C 251.183594 323.164062 236.550781 330.054688 219.390625 331.859375 C 218.640625 331.859375 217.917969 331.859375 217.199219 331.859375 C 209.085938 331.859375 201.84375 327.136719 198.597656 320.007812 C 197.125 320.125 195.441406 320.125 193.398438 320.125 C 185.046875 320.125 172.695312 318.5625 160.617188 310.5625 L 101.027344 310.5625 C 89.160156 310.5625 45.527344 298.710938 45.527344 278.132812 C 45.527344 275.21875 47.8125 272.929688 50.726562 272.929688 L 112.386719 272.929688 C 104.273438 266.523438 97.03125 258.644531 90.601562 249.558594 C 90.480469 249.4375 90.363281 249.4375 90.363281 249.199219 C 81.078125 236.144531 67.886719 232.023438 55.203125 228.019531 C 43.9375 224.652344 32.335938 221.132812 25.09375 211.328125 C 18.90625 202.722656 16.742188 191.351562 19.296875 180.824219 C 21.578125 171.019531 27.738281 162.777344 36.214844 158.566406 C 46.007812 153.363281 56.285156 153.84375 65.960938 159.167969 L 65.960938 135.074219 C 65.960938 132.304688 68.246094 129.871094 71.160156 129.871094 L 236.070312 129.871094 C 238.953125 129.871094 241.238281 132.304688 241.238281 135.074219 L 241.238281 173.816406 C 241.238281 180.101562 240.546875 186.511719 239.433594 193.039062 C 244.03125 187.832031 251.273438 185.910156 258.066406 187.59375 C 259.988281 184.824219 263.023438 180.101562 265.1875 174.539062 C 267.742188 167.980469 273.300781 163.019531 279.820312 161.09375 C 281.140625 156.730469 284.777344 141.839844 282.105469 125.75 C 281.140625 120.425781 283.335938 114.980469 287.691406 111.609375 C 291.929688 108.453125 297.460938 107.488281 302.296875 109.65625 C 344.757812 127.824219 345.957031 161.453125 344.875 173.816406 C 352.597656 177.066406 357.558594 185.546875 356.59375 194.390625 Z M 188.773438 83.636719 C 188.773438 89.5625 191.324219 95.007812 195.921875 99.128906 C 196.886719 99.847656 198.085938 100.332031 199.289062 100.332031 C 200.640625 100.332031 202.082031 99.730469 203.046875 98.644531 C 205 96.480469 204.726562 93.320312 202.683594 91.398438 C 200.28125 89.199219 198.929688 86.554688 198.929688 83.636719 C 198.929688 80.75 200.28125 77.949219 202.683594 75.90625 C 207.28125 71.785156 209.835938 66.339844 209.835938 60.414062 C 209.835938 54.578125 207.28125 49.132812 202.683594 45.042969 C 200.519531 43.085938 197.367188 43.328125 195.441406 45.523438 C 193.488281 47.691406 193.761719 50.847656 195.804688 52.652344 C 198.207031 54.847656 199.558594 57.496094 199.558594 60.414062 C 199.558594 63.300781 198.207031 66.21875 195.804688 68.386719 C 191.445312 72.265625 188.773438 77.710938 188.773438 83.636719 Z M 96.671875 83.636719 C 96.671875 89.5625 99.195312 95.007812 103.792969 99.128906 C 104.753906 99.847656 105.957031 100.332031 107.1875 100.332031 C 108.632812 100.332031 109.953125 99.730469 110.914062 98.644531 C 112.867188 96.480469 112.628906 93.320312 110.554688 91.398438 C 108.152344 89.199219 106.828125 86.554688 106.828125 83.636719 C 106.828125 80.75 108.152344 77.949219 110.554688 75.90625 C 115.152344 71.785156 117.707031 66.339844 117.707031 60.414062 C 117.707031 54.578125 115.152344 49.132812 110.554688 45.042969 C 108.511719 42.96875 105.234375 43.328125 103.3125 45.402344 C 101.507812 47.570312 101.628906 50.726562 103.792969 52.53125 C 106.078125 54.730469 107.550781 57.375 107.550781 60.292969 C 107.550781 63.179688 106.199219 66.097656 103.792969 68.265625 C 99.195312 72.265625 96.671875 77.710938 96.671875 83.636719 Z M 149.980469 68.265625 C 152.261719 66.097656 153.613281 63.179688 153.613281 60.292969 C 153.613281 57.375 152.261719 54.578125 149.980469 52.53125 C 147.816406 50.726562 147.695312 47.449219 149.496094 45.402344 C 151.421875 43.207031 154.578125 42.96875 156.738281 44.921875 C 161.335938 49.011719 163.890625 54.457031 163.890625 60.292969 C 163.890625 66.21875 161.335938 71.664062 156.738281 75.785156 C 154.335938 77.949219 153.011719 80.628906 153.011719 83.515625 C 153.011719 86.433594 154.335938 89.199219 156.738281 91.277344 C 158.933594 93.203125 159.054688 96.480469 157.21875 98.527344 C 156.257812 99.609375 154.816406 100.210938 153.375 100.210938 C 152.140625 100.210938 150.941406 99.730469 149.980469 99.007812 C 145.261719 95.125 142.707031 89.5625 142.707031 83.636719 C 142.707031 77.710938 145.261719 72.265625 149.980469 68.265625 " fill-opacity="1" fill-rule="nonzero"/></g></svg>