<svg xmlns="http://www.w3.org/2000/svg" xmlns:xlink="http://www.w3.org/1999/xlink" width="500" zoomAndPan="magnify" viewBox="0 0 375 374.999991" height="500" preserveAspectRatio="xMidYMid meet" version="1.0"><defs><g/><clipPath id="id1"><path d="M 19.453125 22 L 355.453125 22 L 355.453125 286 L 19.453125 286 Z M 19.453125 22 " clip-rule="nonzero"/></clipPath></defs><g clip-path="url(#id1)"><path fill="#ffffff" d="M 333.371094 256.996094 C 332.742188 272.695312 312.761719 269.988281 312.761719 269.988281 C 312.761719 269.988281 194.988281 263.082031 172.257812 262.410156 C 149.523438 261.738281 145.691406 269.902344 126.792969 281.203125 C 107.890625 292.503906 38.9375 277.847656 39.261719 275.789062 C 39.589844 273.734375 106.160156 275.789062 107.804688 272.5625 C 109.453125 269.339844 39.695312 267.496094 40.195312 264.574219 C 40.691406 261.652344 108.347656 263.425781 108.910156 258.078125 C 109.472656 252.730469 40 255.675781 40.214844 252.6875 C 40.433594 249.699219 109.625 248.550781 107.328125 243.484375 C 105.035156 238.417969 36.40625 241.625 39.675781 238.9375 C 42.945312 236.253906 107.914062 229.410156 118.199219 230.472656 C 132.117188 232.011719 145.886719 250.652344 163.097656 251.386719 C 180.308594 252.125 306.9375 246.214844 306.9375 246.214844 C 306.9375 246.214844 334.042969 241.277344 333.371094 256.996094 Z M 44.65625 199.617188 C 45.152344 183.898438 65.199219 186.628906 65.199219 186.628906 C 65.199219 186.628906 183.058594 193.121094 205.921875 193.640625 C 224.367188 194.074219 229.152344 190.15625 240.796875 182.558594 C 244.21875 179.777344 247.957031 177.527344 252.011719 175.800781 C 253.609375 175.027344 255.261719 174.398438 256.972656 173.917969 C 265.167969 171.25 273.574219 169.945312 282.191406 170 C 310.078125 170 332.65625 182.988281 332.65625 199.078125 C 332.65625 215.164062 310.078125 228.199219 282.191406 228.199219 C 275.140625 228.222656 268.195312 227.355469 261.367188 225.601562 L 261.234375 225.601562 L 260.542969 225.363281 C 255.03125 223.925781 249.851562 221.71875 245 218.738281 C 233.71875 212.242188 227.332031 205.378906 214.972656 204.902344 C 198.019531 204.230469 71.175781 210.445312 71.175781 210.445312 C 71.175781 210.445312 44.089844 215.335938 44.65625 199.617188 Z M 241.449219 206.480469 C 244.652344 192.863281 262.96875 182.382812 285.09375 182.382812 C 301.570312 182.382812 315.945312 188.1875 323.519531 196.804688 C 317.804688 185.609375 302.132812 177.597656 283.621094 177.597656 C 260.328125 177.597656 241.449219 190.371094 241.449219 206.09375 Z M 69.917969 102.183594 L 61.910156 102.183594 C 62.539062 100.011719 63.253906 97.871094 64.054688 95.757812 C 64.859375 93.644531 65.742188 91.566406 66.707031 89.523438 C 67.675781 87.480469 68.722656 85.476562 69.847656 83.519531 C 70.976562 81.558594 72.179688 79.644531 73.457031 77.78125 C 74.734375 75.917969 76.085938 74.109375 77.511719 72.351562 C 78.933594 70.597656 80.425781 68.898438 81.984375 67.261719 C 83.542969 65.625 85.164062 64.054688 86.847656 62.546875 C 88.53125 61.039062 90.273438 59.597656 92.070312 58.230469 C 93.871094 56.859375 95.71875 55.566406 97.621094 54.34375 C 99.523438 53.121094 101.46875 51.980469 103.464844 50.914062 C 105.457031 49.847656 107.488281 48.863281 109.558594 47.957031 C 111.632812 47.054688 113.734375 46.234375 115.875 45.496094 C 118.011719 44.761719 120.171875 44.109375 122.363281 43.546875 C 124.550781 42.984375 126.757812 42.507812 128.984375 42.121094 C 131.210938 41.730469 133.449219 41.433594 135.699219 41.222656 C 137.953125 41.015625 140.207031 40.894531 142.464844 40.867188 C 143.480469 40.046875 144.511719 39.25 145.558594 38.480469 C 146.609375 37.707031 147.675781 36.960938 148.761719 36.238281 C 149.84375 35.515625 150.945312 34.820312 152.058594 34.148438 C 153.175781 33.476562 154.308594 32.832031 155.453125 32.210938 C 156.601562 31.59375 157.757812 31 158.933594 30.433594 C 160.105469 29.871094 161.292969 29.332031 162.492188 28.820312 C 163.6875 28.3125 164.898438 27.828125 166.121094 27.375 C 167.339844 26.921875 168.570312 26.492188 169.8125 26.097656 C 171.050781 25.699219 172.300781 25.332031 173.558594 24.992188 C 174.816406 24.652344 176.078125 24.339844 177.351562 24.058594 C 178.625 23.777344 179.902344 23.527344 181.183594 23.304688 C 182.46875 23.082031 183.757812 22.890625 185.046875 22.726562 C 186.339844 22.566406 187.636719 22.433594 188.933594 22.332031 C 190.234375 22.226562 191.535156 22.15625 192.835938 22.113281 C 194.136719 22.070312 195.4375 22.058594 196.742188 22.078125 C 198.042969 22.09375 199.34375 22.144531 200.644531 22.222656 C 201.945312 22.300781 203.242188 22.410156 204.539062 22.546875 C 205.832031 22.683594 207.125 22.851562 208.414062 23.050781 C 209.699219 23.25 210.980469 23.476562 212.257812 23.734375 C 213.535156 23.992188 214.804688 24.277344 216.070312 24.59375 C 217.332031 24.910156 218.589844 25.257812 219.835938 25.628906 C 221.082031 26.003906 222.320312 26.40625 223.550781 26.839844 C 224.78125 27.269531 226 27.730469 227.207031 28.21875 C 228.414062 28.707031 229.609375 29.222656 230.792969 29.765625 C 231.976562 30.308594 233.148438 30.878906 234.304688 31.476562 C 235.460938 32.074219 236.605469 32.699219 237.734375 33.351562 C 238.863281 34 239.976562 34.675781 241.074219 35.378906 C 242.171875 36.082031 243.25 36.808594 244.3125 37.558594 C 245.378906 38.3125 246.421875 39.085938 247.449219 39.886719 C 248.480469 40.6875 249.488281 41.511719 250.476562 42.359375 C 251.464844 43.207031 252.4375 44.074219 253.386719 44.96875 C 254.335938 45.859375 255.261719 46.773438 256.167969 47.707031 C 259.523438 48.480469 262.8125 49.476562 266.03125 50.695312 C 269.253906 51.914062 272.375 53.34375 275.402344 54.984375 C 278.429688 56.625 281.335938 58.460938 284.113281 60.492188 C 286.894531 62.523438 289.523438 64.734375 292.003906 67.121094 C 294.484375 69.507812 296.792969 72.050781 298.933594 74.75 C 301.070312 77.449219 303.015625 80.28125 304.773438 83.242188 C 306.527344 86.207031 308.074219 89.273438 309.417969 92.441406 C 310.757812 95.613281 311.878906 98.863281 312.785156 102.183594 L 305.746094 102.183594 C 305.214844 100.414062 304.609375 98.667969 303.9375 96.945312 C 303.265625 95.21875 302.523438 93.527344 301.714844 91.863281 C 300.910156 90.199219 300.035156 88.570312 299.097656 86.976562 C 298.160156 85.382812 297.160156 83.828125 296.097656 82.3125 C 295.035156 80.800781 293.914062 79.328125 292.738281 77.90625 C 291.558594 76.480469 290.324219 75.105469 289.035156 73.777344 C 287.746094 72.449219 286.40625 71.175781 285.015625 69.957031 C 283.625 68.738281 282.191406 67.574219 280.707031 66.46875 C 279.222656 65.367188 277.699219 64.320312 276.132812 63.335938 C 274.566406 62.355469 272.964844 61.433594 271.324219 60.578125 C 269.683594 59.722656 268.011719 58.933594 266.308594 58.210938 C 264.609375 57.488281 262.878906 56.835938 261.125 56.25 C 259.371094 55.667969 257.59375 55.152344 255.800781 54.710938 C 254.003906 54.269531 252.191406 53.898438 250.367188 53.597656 C 248.542969 53.300781 246.707031 53.074219 244.867188 52.921875 C 243.023438 52.769531 241.175781 52.691406 239.328125 52.6875 C 235.992188 52.691406 232.671875 52.9375 229.371094 53.425781 C 226.070312 53.914062 222.824219 54.636719 219.628906 55.597656 C 216.433594 56.558594 213.324219 57.746094 210.304688 59.160156 C 207.28125 60.574219 204.378906 62.199219 201.589844 64.035156 C 202.695312 65.09375 203.757812 66.199219 204.839844 67.257812 C 205.878906 66.601562 206.933594 65.96875 208.007812 65.371094 C 209.082031 64.769531 210.175781 64.203125 211.28125 63.664062 C 212.386719 63.128906 213.507812 62.625 214.644531 62.152344 C 215.78125 61.675781 216.929688 61.238281 218.089844 60.828125 C 219.253906 60.421875 220.421875 60.046875 221.605469 59.707031 C 222.789062 59.367188 223.980469 59.0625 225.179688 58.789062 C 226.378906 58.515625 227.585938 58.28125 228.800781 58.074219 C 230.011719 57.871094 231.230469 57.703125 232.453125 57.570312 C 233.679688 57.4375 234.902344 57.339844 236.132812 57.273438 C 237.363281 57.210938 238.589844 57.183594 239.820312 57.191406 C 241.050781 57.195312 242.28125 57.238281 243.507812 57.316406 C 244.738281 57.390625 245.960938 57.503906 247.183594 57.652344 C 248.40625 57.796875 249.621094 57.980469 250.832031 58.195312 C 252.042969 58.414062 253.25 58.664062 254.445312 58.949219 C 255.640625 59.234375 256.828125 59.554688 258.007812 59.90625 C 259.1875 60.261719 260.355469 60.648438 261.511719 61.066406 C 262.667969 61.488281 263.8125 61.941406 264.941406 62.425781 C 266.074219 62.910156 267.1875 63.429688 268.289062 63.976562 C 269.390625 64.527344 270.476562 65.105469 271.542969 65.71875 C 272.609375 66.328125 273.660156 66.96875 274.691406 67.640625 C 275.722656 68.3125 276.734375 69.011719 277.726562 69.742188 C 278.71875 70.46875 279.6875 71.226562 280.632812 72.011719 C 281.582031 72.796875 282.507812 73.605469 283.410156 74.445312 C 284.3125 75.28125 285.1875 76.144531 286.039062 77.03125 C 286.894531 77.917969 287.71875 78.828125 288.519531 79.765625 C 289.320312 80.699219 290.09375 81.65625 290.839844 82.632812 C 291.585938 83.613281 292.300781 84.613281 292.988281 85.632812 C 293.679688 86.652344 294.335938 87.691406 294.964844 88.75 C 295.597656 89.804688 296.195312 90.882812 296.761719 91.972656 C 297.328125 93.0625 297.867188 94.171875 298.371094 95.292969 C 298.875 96.417969 299.347656 97.550781 299.785156 98.703125 C 300.226562 99.851562 300.632812 101.011719 301.007812 102.183594 L 293.753906 102.183594 C 293.394531 101.179688 293.003906 100.183594 292.589844 99.203125 C 292.171875 98.21875 291.730469 97.246094 291.261719 96.289062 C 290.792969 95.328125 290.296875 94.382812 289.773438 93.453125 C 289.253906 92.523438 288.703125 91.605469 288.132812 90.707031 C 287.558594 89.804688 286.960938 88.921875 286.339844 88.050781 C 285.71875 87.183594 285.074219 86.335938 284.402344 85.503906 C 283.734375 84.671875 283.042969 83.859375 282.328125 83.066406 C 281.613281 82.269531 280.878906 81.496094 280.121094 80.746094 C 279.363281 79.992188 278.585938 79.261719 277.789062 78.550781 C 276.992188 77.84375 276.175781 77.15625 275.339844 76.492188 C 274.503906 75.828125 273.652344 75.1875 272.78125 74.570312 C 271.90625 73.953125 271.019531 73.359375 270.117188 72.792969 C 269.210938 72.226562 268.292969 71.683594 267.359375 71.167969 C 266.425781 70.652344 265.476562 70.160156 264.515625 69.695312 C 263.554688 69.234375 262.578125 68.796875 261.59375 68.386719 C 260.609375 67.976562 259.613281 67.59375 258.605469 67.238281 C 257.597656 66.886719 256.582031 66.558594 255.558594 66.261719 C 254.53125 65.960938 253.5 65.691406 252.460938 65.453125 C 251.421875 65.210938 250.375 65 249.324219 64.816406 C 248.269531 64.632812 247.214844 64.480469 246.15625 64.355469 C 245.09375 64.234375 244.03125 64.136719 242.964844 64.074219 C 241.898438 64.007812 240.832031 63.972656 239.765625 63.964844 C 238.699219 63.960938 237.632812 63.984375 236.566406 64.039062 C 235.5 64.089844 234.4375 64.171875 233.375 64.285156 C 232.3125 64.398438 231.253906 64.539062 230.203125 64.710938 C 229.148438 64.882812 228.097656 65.082031 227.058594 65.3125 C 226.015625 65.539062 224.980469 65.796875 223.949219 66.085938 C 222.921875 66.371094 221.902344 66.6875 220.890625 67.03125 C 219.882812 67.375 218.882812 67.746094 217.890625 68.144531 C 216.902344 68.542969 215.921875 68.96875 214.957031 69.421875 C 213.988281 69.875 213.035156 70.355469 212.097656 70.859375 C 211.15625 71.367188 210.230469 71.898438 209.320312 72.457031 C 210.25 73.605469 211.160156 74.816406 212.046875 76.027344 C 212.875 75.535156 213.714844 75.066406 214.566406 74.617188 C 215.417969 74.167969 216.28125 73.746094 217.15625 73.34375 C 218.03125 72.945312 218.914062 72.566406 219.808594 72.214844 C 220.707031 71.859375 221.609375 71.53125 222.523438 71.226562 C 223.433594 70.925781 224.355469 70.644531 225.285156 70.390625 C 226.210938 70.136719 227.144531 69.90625 228.085938 69.703125 C 229.027344 69.5 229.972656 69.320312 230.921875 69.167969 C 231.871094 69.015625 232.828125 68.890625 233.785156 68.789062 C 234.738281 68.6875 235.699219 68.613281 236.660156 68.5625 C 237.621094 68.515625 238.582031 68.492188 239.546875 68.496094 C 240.507812 68.496094 241.46875 68.527344 242.429688 68.582031 C 243.390625 68.636719 244.347656 68.71875 245.304688 68.824219 C 246.261719 68.929688 247.214844 69.0625 248.164062 69.222656 C 249.113281 69.382812 250.054688 69.566406 250.996094 69.773438 C 251.933594 69.984375 252.867188 70.21875 253.792969 70.480469 C 254.71875 70.738281 255.640625 71.023438 256.550781 71.335938 C 257.460938 71.644531 258.363281 71.976562 259.257812 72.335938 C 260.148438 72.695312 261.03125 73.078125 261.902344 73.484375 C 262.777344 73.890625 263.636719 74.320312 264.484375 74.773438 C 265.335938 75.226562 266.171875 75.703125 266.996094 76.199219 C 267.816406 76.699219 268.628906 77.21875 269.421875 77.761719 C 270.21875 78.300781 270.996094 78.867188 271.761719 79.449219 C 272.527344 80.035156 273.273438 80.636719 274.007812 81.261719 C 274.738281 81.886719 275.453125 82.53125 276.152344 83.195312 C 276.847656 83.859375 277.527344 84.539062 278.1875 85.242188 C 278.847656 85.941406 279.488281 86.65625 280.109375 87.394531 C 280.730469 88.128906 281.332031 88.878906 281.910156 89.644531 C 282.492188 90.414062 283.050781 91.195312 283.589844 91.992188 C 284.128906 92.789062 284.644531 93.601562 285.140625 94.429688 C 285.636719 95.253906 286.105469 96.09375 286.554688 96.941406 C 287.003906 97.792969 287.429688 98.65625 287.832031 99.53125 C 288.234375 100.40625 288.613281 101.289062 288.96875 102.183594 L 281.414062 102.183594 C 280.472656 100.195312 279.398438 98.28125 278.191406 96.441406 C 276.980469 94.601562 275.648438 92.859375 274.191406 91.207031 C 272.738281 89.558594 271.171875 88.015625 269.5 86.585938 C 267.828125 85.15625 266.0625 83.851562 264.207031 82.667969 C 262.351562 81.488281 260.417969 80.445312 258.414062 79.535156 C 256.410156 78.625 254.351562 77.863281 252.242188 77.242188 C 250.128906 76.625 247.984375 76.15625 245.808594 75.84375 C 243.628906 75.527344 241.441406 75.363281 239.238281 75.355469 C 235.125 75.382812 231.082031 75.945312 227.117188 77.046875 C 223.148438 78.148438 219.398438 79.75 215.859375 81.851562 C 216.636719 83.128906 217.394531 84.429688 218.023438 85.75 C 221.226562 83.867188 224.617188 82.433594 228.203125 81.457031 C 231.789062 80.480469 235.4375 79.992188 239.152344 79.992188 C 241.058594 79.980469 242.957031 80.09375 244.847656 80.339844 C 246.734375 80.585938 248.601562 80.957031 250.441406 81.457031 C 252.277344 81.957031 254.074219 82.578125 255.832031 83.320312 C 257.585938 84.0625 259.28125 84.921875 260.921875 85.894531 C 262.558594 86.867188 264.125 87.945312 265.617188 89.132812 C 267.109375 90.316406 268.511719 91.597656 269.832031 92.976562 C 271.148438 94.351562 272.367188 95.8125 273.488281 97.351562 C 274.609375 98.894531 275.617188 100.503906 276.519531 102.183594 L 268.574219 102.183594 C 267.949219 101.261719 267.28125 100.371094 266.570312 99.507812 C 265.859375 98.648438 265.109375 97.824219 264.320312 97.035156 C 263.53125 96.246094 262.707031 95.496094 261.847656 94.785156 C 260.988281 94.078125 260.09375 93.40625 259.171875 92.78125 C 258.25 92.15625 257.296875 91.574219 256.320312 91.039062 C 255.339844 90.503906 254.339844 90.015625 253.316406 89.574219 C 252.289062 89.132812 251.246094 88.742188 250.183594 88.398438 C 249.121094 88.058594 248.046875 87.765625 246.957031 87.527344 C 245.867188 87.285156 244.769531 87.097656 243.664062 86.964844 C 242.554688 86.828125 241.445312 86.746094 240.328125 86.714844 C 239.214844 86.683594 238.101562 86.707031 236.988281 86.78125 C 235.875 86.855469 234.765625 86.984375 233.667969 87.164062 C 232.566406 87.34375 231.476562 87.578125 230.398438 87.859375 C 229.316406 88.144531 228.253906 88.480469 227.207031 88.863281 C 226.160156 89.246094 225.132812 89.679688 224.128906 90.164062 C 223.121094 90.644531 222.140625 91.171875 221.183594 91.746094 C 221.789062 93.15625 222.375 94.5625 222.917969 96.078125 C 223.691406 95.582031 224.488281 95.121094 225.304688 94.695312 C 226.121094 94.273438 226.953125 93.886719 227.804688 93.535156 C 228.65625 93.1875 229.519531 92.875 230.398438 92.605469 C 231.28125 92.332031 232.167969 92.101562 233.070312 91.910156 C 233.96875 91.722656 234.875 91.570312 235.789062 91.460938 C 236.703125 91.351562 237.621094 91.285156 238.539062 91.257812 C 239.460938 91.230469 240.378906 91.246094 241.296875 91.304688 C 242.214844 91.359375 243.128906 91.457031 244.039062 91.597656 C 244.949219 91.734375 245.851562 91.914062 246.742188 92.136719 C 247.636719 92.355469 248.519531 92.617188 249.390625 92.917969 C 250.257812 93.214844 251.113281 93.554688 251.953125 93.933594 C 252.792969 94.308594 253.613281 94.722656 254.414062 95.175781 C 255.214844 95.625 255.996094 96.113281 256.753906 96.632812 C 257.511719 97.15625 258.246094 97.710938 258.953125 98.296875 C 259.660156 98.886719 260.34375 99.503906 260.996094 100.152344 C 261.648438 100.800781 262.269531 101.480469 262.859375 102.183594 L 252.792969 102.183594 C 250.804688 100.835938 248.664062 99.804688 246.371094 99.097656 C 244.074219 98.390625 241.726562 98.03125 239.328125 98.027344 C 236.953125 98.039062 234.632812 98.398438 232.367188 99.105469 C 230.101562 99.8125 227.992188 100.839844 226.035156 102.183594 L 217.027344 102.183594 C 216.410156 100.25 215.714844 98.34375 214.945312 96.464844 C 214.179688 94.585938 213.335938 92.738281 212.421875 90.925781 C 211.507812 89.113281 210.523438 87.339844 209.46875 85.605469 C 208.414062 83.867188 207.292969 82.175781 206.105469 80.53125 C 204.917969 78.882812 203.667969 77.285156 202.355469 75.738281 C 201.042969 74.191406 199.667969 72.695312 198.238281 71.257812 C 196.804688 69.816406 195.320312 68.433594 193.78125 67.113281 C 192.238281 65.789062 190.648438 64.53125 189.007812 63.332031 C 187.371094 62.136719 185.683594 61.003906 183.957031 59.941406 C 182.226562 58.875 180.460938 57.878906 178.652344 56.957031 C 176.84375 56.03125 175.003906 55.179688 173.128906 54.398438 C 171.253906 53.617188 169.351562 52.914062 167.421875 52.285156 C 165.492188 51.65625 163.539062 51.101562 161.566406 50.625 C 159.59375 50.148438 157.601562 49.753906 155.597656 49.433594 C 153.59375 49.117188 151.578125 48.875 149.554688 48.714844 C 147.53125 48.554688 145.503906 48.476562 143.472656 48.476562 C 141.441406 48.476562 139.417969 48.554688 137.390625 48.714844 C 135.367188 48.875 133.355469 49.117188 131.347656 49.433594 C 129.34375 49.753906 127.355469 50.148438 125.378906 50.625 C 123.40625 51.101562 121.453125 51.65625 119.523438 52.285156 C 117.59375 52.914062 115.691406 53.617188 113.816406 54.398438 C 111.941406 55.179688 110.101562 56.03125 108.292969 56.957031 C 106.488281 57.878906 104.71875 58.875 102.992188 59.941406 C 101.261719 61.003906 99.578125 62.132812 97.9375 63.332031 C 96.296875 64.53125 94.707031 65.789062 93.167969 67.113281 C 91.628906 68.433594 90.140625 69.816406 88.710938 71.257812 C 87.277344 72.695312 85.90625 74.191406 84.59375 75.738281 C 83.277344 77.285156 82.027344 78.882812 80.839844 80.53125 C 79.652344 82.175781 78.53125 83.867188 77.476562 85.605469 C 76.421875 87.339844 75.4375 89.113281 74.523438 90.925781 C 73.609375 92.738281 72.769531 94.585938 72 96.464844 C 71.230469 98.34375 70.539062 100.25 69.917969 102.183594 Z M 180.484375 49.351562 C 185.96875 47.863281 191.554688 47.191406 197.238281 47.339844 C 202.921875 47.488281 208.464844 48.445312 213.867188 50.21875 C 216.429688 49.289062 219.035156 48.5 221.683594 47.859375 C 217.90625 46.160156 214 44.84375 209.96875 43.910156 C 205.933594 42.976562 201.847656 42.441406 197.710938 42.304688 C 193.570312 42.171875 189.460938 42.4375 185.375 43.105469 C 181.289062 43.773438 177.304688 44.832031 173.425781 46.277344 C 175.828125 47.230469 178.1875 48.25 180.484375 49.351562 Z M 196.242188 59.335938 C 198.25 57.9375 200.320312 56.648438 202.457031 55.460938 C 200.183594 55.125 197.894531 54.941406 195.59375 54.917969 C 193.925781 54.917969 192.28125 55.046875 190.636719 55.222656 C 192.648438 56.519531 194.425781 57.882812 196.242188 59.335938 Z M 195.59375 29.671875 C 191.980469 29.675781 188.386719 29.933594 184.8125 30.445312 C 181.234375 30.957031 177.710938 31.714844 174.242188 32.71875 C 170.773438 33.722656 167.390625 34.964844 164.09375 36.449219 C 160.800781 37.929688 157.625 39.632812 154.570312 41.558594 C 157.167969 41.90625 159.742188 42.382812 162.277344 42.964844 C 165.0625 41.5 167.929688 40.21875 170.886719 39.132812 C 173.839844 38.042969 176.851562 37.152344 179.921875 36.460938 C 182.996094 35.769531 186.097656 35.285156 189.234375 35.003906 C 192.371094 34.71875 195.511719 34.644531 198.65625 34.777344 C 201.800781 34.910156 204.925781 35.25 208.023438 35.792969 C 211.125 36.339844 214.175781 37.085938 217.179688 38.03125 C 220.183594 38.980469 223.109375 40.117188 225.960938 41.453125 C 228.8125 42.785156 231.566406 44.300781 234.21875 45.996094 C 235.90625 45.890625 237.617188 45.800781 239.328125 45.800781 C 240.472656 45.800781 241.492188 45.800781 242.726562 45.800781 C 239.378906 43.203125 235.839844 40.898438 232.109375 38.886719 C 228.382812 36.875 224.511719 35.183594 220.503906 33.8125 C 216.496094 32.4375 212.398438 31.40625 208.21875 30.710938 C 204.039062 30.015625 199.832031 29.667969 195.59375 29.671875 Z M 211.703125 102.183594 C 211.09375 100.425781 210.414062 98.691406 209.671875 96.988281 C 208.929688 95.28125 208.121094 93.605469 207.246094 91.960938 C 206.371094 90.320312 205.4375 88.710938 204.441406 87.140625 C 203.441406 85.570312 202.386719 84.039062 201.269531 82.546875 C 200.152344 81.058594 198.980469 79.613281 197.753906 78.214844 C 196.527344 76.816406 195.246094 75.46875 193.914062 74.167969 C 192.582031 72.867188 191.203125 71.621094 189.773438 70.429688 C 188.347656 69.234375 186.875 68.097656 185.355469 67.019531 C 183.839844 65.941406 182.285156 64.921875 180.691406 63.960938 C 179.09375 63.003906 177.464844 62.109375 175.800781 61.273438 C 174.136719 60.441406 172.441406 59.675781 170.71875 58.972656 C 168.996094 58.269531 167.246094 57.636719 165.472656 57.070312 C 163.699219 56.503906 161.910156 56.007812 160.097656 55.578125 C 158.285156 55.152344 156.460938 54.792969 154.621094 54.507812 C 152.785156 54.222656 150.9375 54.003906 149.082031 53.863281 C 147.226562 53.71875 145.367188 53.644531 143.507812 53.644531 C 141.644531 53.644531 139.785156 53.71875 137.929688 53.863281 C 136.074219 54.003906 134.226562 54.222656 132.390625 54.507812 C 130.550781 54.792969 128.726562 55.152344 126.914062 55.578125 C 125.101562 56.007812 123.3125 56.503906 121.539062 57.070312 C 119.765625 57.636719 118.015625 58.269531 116.292969 58.972656 C 114.570312 59.675781 112.875 60.441406 111.210938 61.273438 C 109.546875 62.109375 107.917969 63.003906 106.320312 63.960938 C 104.726562 64.921875 103.171875 65.941406 101.65625 67.019531 C 100.136719 68.097656 98.667969 69.234375 97.238281 70.429688 C 95.808594 71.621094 94.429688 72.867188 93.097656 74.167969 C 91.765625 75.46875 90.484375 76.816406 89.257812 78.214844 C 88.03125 79.613281 86.859375 81.058594 85.742188 82.546875 C 84.625 84.039062 83.570312 85.570312 82.570312 87.140625 C 81.574219 88.710938 80.640625 90.320312 79.765625 91.960938 C 78.890625 93.605469 78.082031 95.28125 77.339844 96.988281 C 76.597656 98.691406 75.917969 100.425781 75.308594 102.183594 L 83.40625 102.183594 C 83.992188 100.683594 84.636719 99.203125 85.332031 97.75 C 86.03125 96.296875 86.78125 94.871094 87.585938 93.472656 C 88.390625 92.074219 89.246094 90.710938 90.152344 89.375 C 91.058594 88.042969 92.015625 86.746094 93.019531 85.484375 C 94.023438 84.222656 95.074219 83 96.167969 81.816406 C 97.261719 80.632812 98.402344 79.492188 99.582031 78.394531 C 100.765625 77.296875 101.984375 76.242188 103.242188 75.238281 C 104.503906 74.230469 105.800781 73.273438 107.132812 72.363281 C 108.460938 71.453125 109.828125 70.59375 111.222656 69.789062 C 112.617188 68.980469 114.042969 68.226562 115.496094 67.527344 C 116.945312 66.824219 118.421875 66.179688 119.925781 65.589844 C 121.425781 65 122.945312 64.46875 124.484375 63.992188 C 126.027344 63.515625 127.582031 63.097656 129.15625 62.738281 C 130.726562 62.378906 132.308594 62.078125 133.90625 61.839844 C 135.5 61.597656 137.101562 61.417969 138.707031 61.296875 C 140.316406 61.175781 141.925781 61.117188 143.539062 61.117188 C 145.152344 61.117188 146.761719 61.175781 148.367188 61.296875 C 149.976562 61.417969 151.578125 61.597656 153.171875 61.839844 C 154.765625 62.078125 156.351562 62.378906 157.921875 62.738281 C 159.492188 63.097656 161.050781 63.515625 162.589844 63.992188 C 164.132812 64.46875 165.652344 65 167.152344 65.589844 C 168.652344 66.179688 170.128906 66.824219 171.582031 67.527344 C 173.035156 68.226562 174.457031 68.980469 175.855469 69.789062 C 177.25 70.59375 178.613281 71.453125 179.945312 72.363281 C 181.277344 73.273438 182.574219 74.230469 183.832031 75.238281 C 185.09375 76.242188 186.3125 77.296875 187.492188 78.394531 C 188.675781 79.492188 189.8125 80.632812 190.910156 81.816406 C 192.003906 83 193.054688 84.222656 194.058594 85.484375 C 195.0625 86.746094 196.015625 88.042969 196.921875 89.375 C 197.832031 90.710938 198.6875 92.074219 199.492188 93.472656 C 200.292969 94.871094 201.046875 96.296875 201.742188 97.75 C 202.441406 99.203125 203.082031 100.683594 203.667969 102.183594 Z M 198.191406 102.183594 C 197.621094 100.855469 197.003906 99.546875 196.339844 98.261719 C 195.671875 96.980469 194.960938 95.71875 194.203125 94.488281 C 193.445312 93.253906 192.644531 92.050781 191.800781 90.878906 C 190.953125 89.703125 190.066406 88.5625 189.140625 87.453125 C 188.210938 86.34375 187.242188 85.269531 186.238281 84.230469 C 185.230469 83.191406 184.1875 82.1875 183.105469 81.226562 C 182.027344 80.261719 180.914062 79.339844 179.769531 78.457031 C 178.621094 77.574219 177.445312 76.738281 176.234375 75.941406 C 175.027344 75.144531 173.792969 74.394531 172.53125 73.6875 C 171.265625 72.980469 169.980469 72.320312 168.667969 71.710938 C 167.359375 71.097656 166.027344 70.535156 164.675781 70.019531 C 163.324219 69.503906 161.957031 69.039062 160.570312 68.621094 C 159.183594 68.207031 157.785156 67.84375 156.375 67.527344 C 154.960938 67.214844 153.539062 66.953125 152.109375 66.742188 C 150.675781 66.53125 149.238281 66.375 147.796875 66.269531 C 146.355469 66.164062 144.910156 66.113281 143.460938 66.113281 C 142.015625 66.113281 140.570312 66.164062 139.128906 66.269531 C 137.6875 66.375 136.25 66.53125 134.816406 66.742188 C 133.386719 66.953125 131.964844 67.214844 130.550781 67.527344 C 129.140625 67.84375 127.742188 68.207031 126.355469 68.621094 C 124.96875 69.039062 123.601562 69.503906 122.25 70.019531 C 120.898438 70.535156 119.566406 71.097656 118.253906 71.710938 C 116.945312 72.320312 115.65625 72.980469 114.394531 73.6875 C 113.132812 74.394531 111.898438 75.144531 110.691406 75.941406 C 109.480469 76.738281 108.304688 77.574219 107.15625 78.457031 C 106.011719 79.339844 104.898438 80.261719 103.816406 81.226562 C 102.738281 82.1875 101.695312 83.191406 100.6875 84.230469 C 99.683594 85.269531 98.714844 86.34375 97.785156 87.453125 C 96.859375 88.5625 95.972656 89.703125 95.125 90.878906 C 94.28125 92.050781 93.480469 93.253906 92.722656 94.488281 C 91.964844 95.71875 91.253906 96.980469 90.585938 98.261719 C 89.921875 99.546875 89.304688 100.855469 88.734375 102.183594 L 97.15625 102.183594 C 98.238281 100.0625 99.460938 98.027344 100.824219 96.074219 C 102.191406 94.121094 103.679688 92.273438 105.300781 90.523438 C 106.917969 88.777344 108.648438 87.148438 110.488281 85.640625 C 112.332031 84.128906 114.269531 82.753906 116.300781 81.511719 C 118.332031 80.269531 120.4375 79.167969 122.621094 78.214844 C 124.800781 77.261719 127.039062 76.464844 129.332031 75.816406 C 131.625 75.171875 133.949219 74.6875 136.308594 74.359375 C 138.667969 74.035156 141.039062 73.871094 143.417969 73.871094 C 145.800781 73.871094 148.171875 74.035156 150.53125 74.359375 C 152.890625 74.6875 155.214844 75.171875 157.507812 75.816406 C 159.800781 76.464844 162.035156 77.261719 164.21875 78.214844 C 166.402344 79.167969 168.507812 80.269531 170.539062 81.511719 C 172.570312 82.753906 174.507812 84.128906 176.347656 85.640625 C 178.191406 87.148438 179.921875 88.777344 181.539062 90.523438 C 183.15625 92.273438 184.648438 94.121094 186.011719 96.074219 C 187.375 98.027344 188.601562 100.0625 189.683594 102.183594 Z M 174.941406 102.183594 L 183.992188 102.183594 C 183.476562 101.300781 182.9375 100.433594 182.367188 99.585938 C 181.796875 98.738281 181.199219 97.910156 180.574219 97.101562 C 179.953125 96.292969 179.300781 95.503906 178.625 94.738281 C 177.949219 93.972656 177.25 93.226562 176.527344 92.507812 C 175.804688 91.785156 175.058594 91.089844 174.289062 90.417969 C 173.519531 89.746094 172.726562 89.097656 171.917969 88.476562 C 171.105469 87.855469 170.273438 87.261719 169.421875 86.695312 C 168.574219 86.132812 167.703125 85.59375 166.820312 85.082031 C 165.933594 84.574219 165.03125 84.09375 164.117188 83.644531 C 163.199219 83.191406 162.269531 82.773438 161.324219 82.382812 C 160.378906 81.992188 159.425781 81.632812 158.457031 81.304688 C 157.488281 80.976562 156.511719 80.683594 155.523438 80.417969 C 154.539062 80.15625 153.542969 79.921875 152.542969 79.722656 C 151.539062 79.527344 150.53125 79.359375 149.519531 79.226562 C 148.503906 79.09375 147.488281 78.992188 146.46875 78.925781 C 145.449219 78.859375 144.429688 78.828125 143.410156 78.828125 C 142.386719 78.828125 141.367188 78.859375 140.347656 78.925781 C 139.328125 78.992188 138.3125 79.09375 137.296875 79.226562 C 136.285156 79.359375 135.277344 79.527344 134.277344 79.722656 C 133.273438 79.921875 132.277344 80.15625 131.292969 80.417969 C 130.304688 80.683594 129.328125 80.976562 128.359375 81.304688 C 127.394531 81.632812 126.4375 81.992188 125.492188 82.382812 C 124.546875 82.773438 123.617188 83.191406 122.699219 83.644531 C 121.785156 84.09375 120.882812 84.574219 119.996094 85.082031 C 119.113281 85.59375 118.242188 86.132812 117.394531 86.695312 C 116.542969 87.261719 115.710938 87.855469 114.902344 88.476562 C 114.089844 89.097656 113.296875 89.746094 112.53125 90.417969 C 111.761719 91.089844 111.011719 91.785156 110.289062 92.507812 C 109.566406 93.226562 108.867188 93.972656 108.191406 94.738281 C 107.515625 95.503906 106.867188 96.292969 106.242188 97.101562 C 105.617188 97.910156 105.019531 98.738281 104.453125 99.585938 C 103.882812 100.433594 103.339844 101.300781 102.828125 102.183594 L 111.960938 102.183594 C 112.417969 101.574219 112.890625 100.980469 113.378906 100.398438 C 113.871094 99.816406 114.378906 99.25 114.898438 98.699219 C 115.421875 98.144531 115.960938 97.609375 116.515625 97.085938 C 117.070312 96.566406 117.636719 96.0625 118.222656 95.574219 C 118.804688 95.085938 119.402344 94.617188 120.011719 94.164062 C 120.625 93.710938 121.246094 93.273438 121.882812 92.855469 C 122.519531 92.441406 123.164062 92.042969 123.824219 91.664062 C 124.484375 91.28125 125.152344 90.921875 125.832031 90.582031 C 126.511719 90.242188 127.203125 89.921875 127.902344 89.621094 C 128.597656 89.320312 129.304688 89.039062 130.019531 88.78125 C 130.734375 88.519531 131.457031 88.28125 132.1875 88.066406 C 132.914062 87.847656 133.648438 87.652344 134.390625 87.476562 C 135.128906 87.300781 135.875 87.148438 136.621094 87.015625 C 137.371094 86.882812 138.125 86.773438 138.878906 86.6875 C 139.632812 86.597656 140.390625 86.53125 141.152344 86.488281 C 141.910156 86.445312 142.667969 86.421875 143.429688 86.421875 C 144.191406 86.421875 144.949219 86.445312 145.710938 86.488281 C 146.46875 86.53125 147.226562 86.597656 147.980469 86.6875 C 148.738281 86.773438 149.488281 86.882812 150.238281 87.015625 C 150.988281 87.148438 151.730469 87.300781 152.472656 87.476562 C 153.210938 87.652344 153.945312 87.847656 154.675781 88.066406 C 155.402344 88.28125 156.125 88.519531 156.839844 88.78125 C 157.554688 89.039062 158.261719 89.320312 158.960938 89.621094 C 159.65625 89.921875 160.347656 90.242188 161.027344 90.582031 C 161.707031 90.921875 162.375 91.28125 163.035156 91.664062 C 163.695312 92.042969 164.34375 92.441406 164.976562 92.855469 C 165.613281 93.273438 166.238281 93.710938 166.847656 94.164062 C 167.457031 94.617188 168.054688 95.085938 168.640625 95.574219 C 169.222656 96.0625 169.789062 96.566406 170.34375 97.085938 C 170.898438 97.609375 171.4375 98.144531 171.960938 98.699219 C 172.484375 99.25 172.988281 99.816406 173.480469 100.398438 C 173.96875 100.980469 174.441406 101.574219 174.898438 102.183594 Z M 118.652344 102.183594 L 131.164062 102.183594 C 133.0625 101.167969 135.058594 100.398438 137.144531 99.875 C 139.234375 99.351562 141.351562 99.089844 143.507812 99.089844 C 145.660156 99.089844 147.777344 99.351562 149.867188 99.875 C 151.957031 100.398438 153.949219 101.167969 155.847656 102.183594 L 168.230469 102.183594 C 167.429688 101.339844 166.589844 100.539062 165.710938 99.78125 C 164.828125 99.023438 163.914062 98.3125 162.960938 97.644531 C 162.007812 96.980469 161.023438 96.367188 160.007812 95.800781 C 158.992188 95.234375 157.953125 94.722656 156.882812 94.265625 C 155.816406 93.804688 154.730469 93.402344 153.621094 93.050781 C 152.511719 92.703125 151.390625 92.414062 150.25 92.179688 C 149.113281 91.945312 147.964844 91.765625 146.808594 91.648438 C 145.652344 91.53125 144.496094 91.472656 143.332031 91.472656 C 142.171875 91.472656 141.011719 91.53125 139.855469 91.648438 C 138.699219 91.765625 137.554688 91.945312 136.414062 92.179688 C 135.277344 92.414062 134.152344 92.703125 133.046875 93.050781 C 131.9375 93.402344 130.847656 93.804688 129.78125 94.265625 C 128.714844 94.722656 127.671875 95.234375 126.65625 95.800781 C 125.640625 96.367188 124.65625 96.980469 123.703125 97.644531 C 122.753906 98.3125 121.835938 99.023438 120.957031 99.78125 C 120.074219 100.539062 119.234375 101.339844 118.4375 102.183594 Z M 19.453125 108.226562 C 33.65625 126.800781 56.0625 142.152344 97.046875 151.03125 L 277.839844 151.03125 C 318.78125 142.152344 341.210938 126.800781 355.410156 108.226562 Z M 19.453125 108.226562 " fill-opacity="1" fill-rule="nonzero"/></g><g fill="#ffffff" fill-opacity="1"><g transform="translate(43.617189, 357.763923)"><g><path d="M 17.828125 0.703125 C 14.816406 0.703125 12.171875 -0.0195312 9.890625 -1.46875 C 7.617188 -2.925781 5.847656 -5.003906 4.578125 -7.703125 C 3.304688 -10.410156 2.671875 -13.59375 2.671875 -17.25 C 2.671875 -20.96875 3.304688 -24.148438 4.578125 -26.796875 C 5.847656 -29.453125 7.617188 -31.503906 9.890625 -32.953125 C 12.171875 -34.410156 14.816406 -35.140625 17.828125 -35.140625 C 20.265625 -35.140625 22.46875 -34.597656 24.4375 -33.515625 C 26.414062 -32.441406 27.894531 -31.015625 28.875 -29.234375 L 28.875 -45.78125 C 28.875 -48.738281 30.332031 -50.21875 33.25 -50.21875 C 36.207031 -50.21875 37.6875 -48.738281 37.6875 -45.78125 L 37.6875 -3.9375 C 37.6875 -0.9375 36.226562 0.5625 33.3125 0.5625 C 30.40625 0.5625 28.953125 -0.9375 28.953125 -3.9375 L 28.953125 -5.421875 C 27.960938 -3.546875 26.476562 -2.054688 24.5 -0.953125 C 22.53125 0.148438 20.304688 0.703125 17.828125 0.703125 Z M 20.28125 -5.984375 C 22.914062 -5.984375 25.03125 -6.929688 26.625 -8.828125 C 28.21875 -10.734375 29.015625 -13.539062 29.015625 -17.25 C 29.015625 -21.007812 28.21875 -23.816406 26.625 -25.671875 C 25.03125 -27.523438 22.914062 -28.453125 20.28125 -28.453125 C 17.65625 -28.453125 15.539062 -27.523438 13.9375 -25.671875 C 12.34375 -23.816406 11.546875 -21.007812 11.546875 -17.25 C 11.546875 -13.539062 12.34375 -10.734375 13.9375 -8.828125 C 15.539062 -6.929688 17.65625 -5.984375 20.28125 -5.984375 Z M 20.28125 -5.984375 "/></g></g></g><g fill="#ffffff" fill-opacity="1"><g transform="translate(85.874964, 357.763923)"><g><path d="M 21.546875 0.703125 C 17.648438 0.703125 14.289062 -0.0195312 11.46875 -1.46875 C 8.65625 -2.925781 6.484375 -4.992188 4.953125 -7.671875 C 3.429688 -10.347656 2.671875 -13.519531 2.671875 -17.1875 C 2.671875 -20.757812 3.410156 -23.878906 4.890625 -26.546875 C 6.367188 -29.222656 8.410156 -31.320312 11.015625 -32.84375 C 13.628906 -34.375 16.601562 -35.140625 19.9375 -35.140625 C 24.820312 -35.140625 28.679688 -33.585938 31.515625 -30.484375 C 34.359375 -27.390625 35.78125 -23.171875 35.78125 -17.828125 C 35.78125 -16.085938 34.65625 -15.21875 32.40625 -15.21875 L 11.125 -15.21875 C 11.78125 -9.0625 15.300781 -5.984375 21.6875 -5.984375 C 22.914062 -5.984375 24.289062 -6.132812 25.8125 -6.4375 C 27.34375 -6.75 28.785156 -7.28125 30.140625 -8.03125 C 31.367188 -8.738281 32.40625 -8.960938 33.25 -8.703125 C 34.09375 -8.441406 34.691406 -7.9375 35.046875 -7.1875 C 35.398438 -6.4375 35.445312 -5.601562 35.1875 -4.6875 C 34.925781 -3.769531 34.253906 -2.984375 33.171875 -2.328125 C 31.523438 -1.296875 29.632812 -0.53125 27.5 -0.03125 C 25.363281 0.457031 23.378906 0.703125 21.546875 0.703125 Z M 20.28125 -29.15625 C 17.695312 -29.15625 15.609375 -28.359375 14.015625 -26.765625 C 12.421875 -25.171875 11.457031 -23.007812 11.125 -20.28125 L 28.453125 -20.28125 C 28.265625 -23.144531 27.476562 -25.335938 26.09375 -26.859375 C 24.707031 -28.390625 22.769531 -29.15625 20.28125 -29.15625 Z M 20.28125 -29.15625 "/></g></g></g><g fill="#ffffff" fill-opacity="1"><g transform="translate(124.047818, 357.763923)"><g><path d="M 16.34375 0.703125 C 8.5 0.703125 4.578125 -3.6875 4.578125 -12.46875 L 4.578125 -45.78125 C 4.578125 -48.738281 6.035156 -50.21875 8.953125 -50.21875 C 11.910156 -50.21875 13.390625 -48.738281 13.390625 -45.78125 L 13.390625 -12.890625 C 13.390625 -8.660156 15.148438 -6.546875 18.671875 -6.546875 C 19.046875 -6.546875 19.394531 -6.554688 19.71875 -6.578125 C 20.050781 -6.609375 20.378906 -6.644531 20.703125 -6.6875 C 21.359375 -6.78125 21.804688 -6.601562 22.046875 -6.15625 C 22.285156 -5.71875 22.40625 -4.816406 22.40625 -3.453125 C 22.40625 -2.273438 22.164062 -1.359375 21.6875 -0.703125 C 21.21875 -0.046875 20.445312 0.351562 19.375 0.5 C 18.382812 0.632812 17.375 0.703125 16.34375 0.703125 Z M 16.34375 0.703125 "/></g></g></g><g fill="#ffffff" fill-opacity="1"><g transform="translate(146.514869, 357.763923)"><g><path d="M 8.953125 -41.484375 C 7.304688 -41.484375 6.023438 -41.894531 5.109375 -42.71875 C 4.191406 -43.539062 3.734375 -44.679688 3.734375 -46.140625 C 3.734375 -47.640625 4.191406 -48.785156 5.109375 -49.578125 C 6.023438 -50.378906 7.304688 -50.78125 8.953125 -50.78125 C 12.421875 -50.78125 14.15625 -49.234375 14.15625 -46.140625 C 14.15625 -43.035156 12.421875 -41.484375 8.953125 -41.484375 Z M 8.953125 0.5 C 7.535156 0.5 6.453125 0.078125 5.703125 -0.765625 C 4.953125 -1.617188 4.578125 -2.796875 4.578125 -4.296875 L 4.578125 -30.140625 C 4.578125 -33.335938 6.035156 -34.9375 8.953125 -34.9375 C 11.910156 -34.9375 13.390625 -33.335938 13.390625 -30.140625 L 13.390625 -4.296875 C 13.390625 -2.796875 13.007812 -1.617188 12.25 -0.765625 C 11.5 0.078125 10.398438 0.5 8.953125 0.5 Z M 8.953125 0.5 "/></g></g></g><g fill="#ffffff" fill-opacity="1"><g transform="translate(164.474424, 357.763923)"><g><path d="M 20.5 0.703125 C 16.882812 0.703125 13.738281 -0.0351562 11.0625 -1.515625 C 8.382812 -2.992188 6.316406 -5.09375 4.859375 -7.8125 C 3.398438 -10.539062 2.671875 -13.734375 2.671875 -17.390625 C 2.671875 -21.054688 3.398438 -24.21875 4.859375 -26.875 C 6.316406 -29.53125 8.382812 -31.570312 11.0625 -33 C 13.738281 -34.425781 16.882812 -35.140625 20.5 -35.140625 C 22.050781 -35.140625 23.726562 -34.925781 25.53125 -34.5 C 27.34375 -34.082031 29.046875 -33.382812 30.640625 -32.40625 C 31.578125 -31.84375 32.128906 -31.113281 32.296875 -30.21875 C 32.460938 -29.320312 32.34375 -28.5 31.9375 -27.75 C 31.539062 -27 30.953125 -26.457031 30.171875 -26.125 C 29.398438 -25.800781 28.523438 -25.921875 27.546875 -26.484375 C 25.378906 -27.703125 23.285156 -28.3125 21.265625 -28.3125 C 18.210938 -28.3125 15.851562 -27.359375 14.1875 -25.453125 C 12.519531 -23.554688 11.6875 -20.847656 11.6875 -17.328125 C 11.6875 -13.847656 12.519531 -11.109375 14.1875 -9.109375 C 15.851562 -7.117188 18.210938 -6.125 21.265625 -6.125 C 23.285156 -6.125 25.378906 -6.710938 27.546875 -7.890625 C 28.523438 -8.453125 29.390625 -8.566406 30.140625 -8.234375 C 30.898438 -7.910156 31.441406 -7.359375 31.765625 -6.578125 C 32.097656 -5.804688 32.171875 -4.984375 31.984375 -4.109375 C 31.796875 -3.242188 31.253906 -2.53125 30.359375 -1.96875 C 28.804688 -1.03125 27.160156 -0.351562 25.421875 0.0625 C 23.691406 0.488281 22.050781 0.703125 20.5 0.703125 Z M 20.5 0.703125 "/></g></g></g><g fill="#ffffff" fill-opacity="1"><g transform="translate(197.717208, 357.763923)"><g><path d="M 8.953125 -41.484375 C 7.304688 -41.484375 6.023438 -41.894531 5.109375 -42.71875 C 4.191406 -43.539062 3.734375 -44.679688 3.734375 -46.140625 C 3.734375 -47.640625 4.191406 -48.785156 5.109375 -49.578125 C 6.023438 -50.378906 7.304688 -50.78125 8.953125 -50.78125 C 12.421875 -50.78125 14.15625 -49.234375 14.15625 -46.140625 C 14.15625 -43.035156 12.421875 -41.484375 8.953125 -41.484375 Z M 8.953125 0.5 C 7.535156 0.5 6.453125 0.078125 5.703125 -0.765625 C 4.953125 -1.617188 4.578125 -2.796875 4.578125 -4.296875 L 4.578125 -30.140625 C 4.578125 -33.335938 6.035156 -34.9375 8.953125 -34.9375 C 11.910156 -34.9375 13.390625 -33.335938 13.390625 -30.140625 L 13.390625 -4.296875 C 13.390625 -2.796875 13.007812 -1.617188 12.25 -0.765625 C 11.5 0.078125 10.398438 0.5 8.953125 0.5 Z M 8.953125 0.5 "/></g></g></g><g fill="#ffffff" fill-opacity="1"><g transform="translate(215.676763, 357.763923)"><g><path d="M 20.28125 0.703125 C 16.71875 0.703125 13.617188 -0.0195312 10.984375 -1.46875 C 8.359375 -2.925781 6.316406 -5.003906 4.859375 -7.703125 C 3.398438 -10.410156 2.671875 -13.59375 2.671875 -17.25 C 2.671875 -20.914062 3.398438 -24.085938 4.859375 -26.765625 C 6.316406 -29.441406 8.359375 -31.503906 10.984375 -32.953125 C 13.617188 -34.410156 16.71875 -35.140625 20.28125 -35.140625 C 23.851562 -35.140625 26.953125 -34.410156 29.578125 -32.953125 C 32.210938 -31.503906 34.253906 -29.441406 35.703125 -26.765625 C 37.160156 -24.085938 37.890625 -20.914062 37.890625 -17.25 C 37.890625 -13.59375 37.160156 -10.410156 35.703125 -7.703125 C 34.253906 -5.003906 32.210938 -2.925781 29.578125 -1.46875 C 26.953125 -0.0195312 23.851562 0.703125 20.28125 0.703125 Z M 20.28125 -5.984375 C 22.914062 -5.984375 25.03125 -6.929688 26.625 -8.828125 C 28.21875 -10.734375 29.015625 -13.539062 29.015625 -17.25 C 29.015625 -21.007812 28.21875 -23.816406 26.625 -25.671875 C 25.03125 -27.523438 22.914062 -28.453125 20.28125 -28.453125 C 17.65625 -28.453125 15.539062 -27.523438 13.9375 -25.671875 C 12.34375 -23.816406 11.546875 -21.007812 11.546875 -17.25 C 11.546875 -13.539062 12.34375 -10.734375 13.9375 -8.828125 C 15.539062 -6.929688 17.65625 -5.984375 20.28125 -5.984375 Z M 20.28125 -5.984375 "/></g></g></g><g fill="#ffffff" fill-opacity="1"><g transform="translate(256.244235, 357.763923)"><g><path d="M 17.046875 0.703125 C 8.585938 0.703125 4.359375 -4.039062 4.359375 -13.53125 L 4.359375 -30.5625 C 4.359375 -33.519531 5.816406 -35 8.734375 -35 C 11.691406 -35 13.171875 -33.519531 13.171875 -30.5625 L 13.171875 -13.390625 C 13.171875 -10.941406 13.660156 -9.128906 14.640625 -7.953125 C 15.628906 -6.785156 17.207031 -6.203125 19.375 -6.203125 C 21.71875 -6.203125 23.640625 -7.007812 25.140625 -8.625 C 26.648438 -10.25 27.40625 -12.398438 27.40625 -15.078125 L 27.40625 -30.5625 C 27.40625 -33.519531 28.859375 -35 31.765625 -35 C 34.722656 -35 36.203125 -33.519531 36.203125 -30.5625 L 36.203125 -3.9375 C 36.203125 -0.9375 34.769531 0.5625 31.90625 0.5625 C 29.039062 0.5625 27.609375 -0.9375 27.609375 -3.9375 L 27.609375 -5.140625 C 25.304688 -1.242188 21.785156 0.703125 17.046875 0.703125 Z M 17.046875 0.703125 "/></g></g></g><g fill="#ffffff" fill-opacity="1"><g transform="translate(297.022987, 357.763923)"><g><path d="M 17.1875 0.703125 C 15.164062 0.703125 13.023438 0.488281 10.765625 0.0625 C 8.515625 -0.351562 6.5 -1.078125 4.71875 -2.109375 C 3.726562 -2.671875 3.113281 -3.363281 2.875 -4.1875 C 2.644531 -5.007812 2.679688 -5.785156 2.984375 -6.515625 C 3.296875 -7.242188 3.816406 -7.769531 4.546875 -8.09375 C 5.273438 -8.425781 6.128906 -8.359375 7.109375 -7.890625 C 8.992188 -6.992188 10.753906 -6.367188 12.390625 -6.015625 C 14.035156 -5.671875 15.65625 -5.5 17.25 -5.5 C 19.507812 -5.5 21.191406 -5.882812 22.296875 -6.65625 C 23.398438 -7.425781 23.953125 -8.445312 23.953125 -9.71875 C 23.953125 -11.6875 22.492188 -12.957031 19.578125 -13.53125 L 12.53125 -14.859375 C 6.570312 -15.984375 3.59375 -19.082031 3.59375 -24.15625 C 3.59375 -26.414062 4.210938 -28.363281 5.453125 -30 C 6.703125 -31.644531 8.429688 -32.910156 10.640625 -33.796875 C 12.847656 -34.691406 15.382812 -35.140625 18.25 -35.140625 C 22.375 -35.140625 26.054688 -34.226562 29.296875 -32.40625 C 30.191406 -31.9375 30.722656 -31.289062 30.890625 -30.46875 C 31.054688 -29.644531 30.960938 -28.867188 30.609375 -28.140625 C 30.253906 -27.410156 29.703125 -26.890625 28.953125 -26.578125 C 28.203125 -26.273438 27.332031 -26.363281 26.34375 -26.84375 C 24.882812 -27.59375 23.484375 -28.128906 22.140625 -28.453125 C 20.804688 -28.785156 19.53125 -28.953125 18.3125 -28.953125 C 16.007812 -28.953125 14.304688 -28.550781 13.203125 -27.75 C 12.097656 -26.957031 11.546875 -25.898438 11.546875 -24.578125 C 11.546875 -22.515625 12.882812 -21.25 15.5625 -20.78125 L 22.609375 -19.4375 C 25.660156 -18.875 27.972656 -17.84375 29.546875 -16.34375 C 31.117188 -14.84375 31.90625 -12.820312 31.90625 -10.28125 C 31.90625 -6.851562 30.566406 -4.164062 27.890625 -2.21875 C 25.210938 -0.269531 21.644531 0.703125 17.1875 0.703125 Z M 17.1875 0.703125 "/></g></g></g></svg>